<svg width="83" height="35" viewBox="0 0 83 35" fill="none" xmlns="http://www.w3.org/2000/svg">
<path d="M25.2 18.53C24.9622 18.4663 24.752 18.3259 24.602 18.1307C24.4519 17.9355 24.3704 17.6962 24.37 17.45C24.3643 17.1745 24.465 16.9074 24.6513 16.7044C24.8376 16.5013 25.095 16.378 25.37 16.36V16.36C25.5342 16.3599 25.697 16.3904 25.85 16.45C26.1432 16.5491 26.4505 16.5997 26.76 16.6C27.54 16.6 27.95 16.28 28.39 15.39L28.47 15.15L24.29 5.64001C24.1991 5.43838 24.1482 5.22104 24.14 5.00001C24.136 4.83453 24.1647 4.66989 24.2243 4.51549C24.284 4.36109 24.3735 4.21996 24.4877 4.10017C24.602 3.98037 24.7387 3.88425 24.8901 3.81731C25.0414 3.75036 25.2045 3.7139 25.37 3.71001H25.44C25.7351 3.71136 26.0216 3.81012 26.2548 3.99094C26.4881 4.17176 26.6551 4.42453 26.73 4.71001L29.81 12.33L32.67 4.71001C32.7444 4.43179 32.9059 4.18467 33.1308 4.00475C33.3557 3.82483 33.6322 3.72156 33.92 3.71001C34.0893 3.70721 34.2573 3.73882 34.414 3.80292C34.5707 3.86701 34.7127 3.96226 34.8314 4.08289C34.9502 4.20351 35.0432 4.347 35.1048 4.50465C35.1665 4.6623 35.1955 4.83083 35.19 5.00001C35.1777 5.21354 35.1408 5.42494 35.08 5.63001L30.89 15.65C29.89 17.99 28.89 18.86 27.03 18.86C26.4039 18.8757 25.7812 18.7634 25.2 18.53" fill="#FED42C"/>
<path d="M37.6803 5.06005C37.675 4.89062 37.7031 4.72181 37.763 4.56325C37.823 4.4047 37.9136 4.25951 38.0297 4.13599C38.1458 4.01247 38.2851 3.91304 38.4396 3.84339C38.5941 3.77374 38.7609 3.73522 38.9303 3.73005V3.73005C39.104 3.72201 39.2776 3.74863 39.4409 3.80836C39.6042 3.86809 39.754 3.95973 39.8815 4.07794C40.009 4.19615 40.1117 4.33857 40.1836 4.49688C40.2555 4.6552 40.2952 4.82624 40.3003 5.00005V5.74005C40.7147 5.07804 41.2914 4.53299 41.9758 4.15668C42.6601 3.78037 43.4294 3.58532 44.2103 3.59005C46.9003 3.59005 49.5203 5.72005 49.5203 9.59005C49.5203 13.3901 46.9203 15.59 44.2103 15.59C43.4447 15.602 42.6879 15.4259 42.0062 15.0772C41.3245 14.7285 40.7387 14.2178 40.3003 13.59V17.6C40.3003 17.9475 40.1623 18.2807 39.9166 18.5264C39.671 18.772 39.3378 18.91 38.9903 18.91C38.6429 18.91 38.3097 18.772 38.064 18.5264C37.8183 18.2807 37.6803 17.9475 37.6803 17.6V5.06005ZM46.8603 9.61005C46.9043 9.14785 46.8529 8.68153 46.7093 8.24001C46.5657 7.79849 46.3329 7.39118 46.0253 7.04334C45.7178 6.6955 45.3421 6.41453 44.9215 6.21786C44.5009 6.0212 44.0444 5.91303 43.5803 5.90005C43.1179 5.91523 42.6632 6.02299 42.2432 6.21696C41.8232 6.41094 41.4463 6.68718 41.1349 7.02935C40.8235 7.37152 40.5839 7.77268 40.4302 8.20907C40.2766 8.64547 40.212 9.10826 40.2403 9.57005V9.57005C40.2106 10.0322 40.2742 10.4955 40.4273 10.9325C40.5805 11.3695 40.82 11.7712 41.1317 12.1137C41.4433 12.4562 41.8208 12.7324 42.2415 12.9259C42.6621 13.1194 43.1175 13.2262 43.5803 13.24C44.0421 13.231 44.4971 13.1269 44.9169 12.9341C45.3367 12.7414 45.7122 12.4641 46.02 12.1197C46.3278 11.7753 46.5613 11.3712 46.7059 10.9325C46.8504 10.4938 46.903 10.03 46.8603 9.57005" fill="#FED42C"/>
<path d="M57.5 15.5799C56.7149 15.6039 55.9333 15.466 55.2039 15.1747C54.4744 14.8834 53.8128 14.4449 53.2602 13.8867C52.7076 13.3285 52.2759 12.6625 51.992 11.9301C51.7081 11.1977 51.5781 10.4148 51.61 9.62994V9.62994C51.5682 8.86457 51.6814 8.09864 51.9429 7.37811C52.2045 6.65759 52.6089 5.99733 53.1319 5.43696C53.6549 4.8766 54.2857 4.42769 54.9865 4.11717C55.6873 3.80665 56.4436 3.64092 57.21 3.62994C57.9433 3.62657 58.6695 3.77201 59.3449 4.05746C60.0203 4.3429 60.6308 4.76242 61.1393 5.29061C61.6479 5.8188 62.044 6.44469 62.3037 7.1304C62.5633 7.81611 62.6812 8.54737 62.65 9.27994C62.654 9.44016 62.6264 9.59961 62.5688 9.74915C62.5111 9.8987 62.4246 10.0354 62.314 10.1515C62.2035 10.2676 62.0712 10.3608 61.9247 10.4257C61.7782 10.4906 61.6203 10.526 61.46 10.5299H54.24C54.3113 11.3459 54.6938 12.1032 55.3081 12.6449C55.9224 13.1866 56.7216 13.4713 57.54 13.4399C58.5364 13.4558 59.5028 13.0992 60.25 12.4399C60.4364 12.2805 60.6748 12.1951 60.92 12.1999C61.1813 12.2121 61.4287 12.3214 61.6136 12.5063C61.7986 12.6913 61.9079 12.9386 61.92 13.1999V13.1999C61.908 13.5011 61.783 13.7867 61.57 13.9999C60.4435 15.0179 58.9678 15.5623 57.45 15.5199L57.5 15.5799ZM60.05 8.72994C59.87 7.02994 58.87 5.72994 57.14 5.72994C55.41 5.72994 54.41 6.96994 54.14 8.72994H60.05Z" fill="#FED42C"/>
<path d="M65.8901 12.15V6.14997H65.4501C65.2934 6.16475 65.1354 6.14666 64.9861 6.09685C64.8369 6.04703 64.6997 5.9666 64.5833 5.8607C64.4669 5.75479 64.374 5.62575 64.3103 5.48184C64.2467 5.33792 64.2139 5.18231 64.2139 5.02497C64.2139 4.86762 64.2467 4.71201 64.3103 4.56809C64.374 4.42418 64.4669 4.29514 64.5833 4.18924C64.6997 4.08333 64.8369 4.0029 64.9861 3.95309C65.1354 3.90327 65.2934 3.88518 65.4501 3.89997H65.8901V1.89997C65.8901 1.55253 66.0281 1.21933 66.2737 0.973656C66.5194 0.727983 66.8526 0.589966 67.2001 0.589966C67.5475 0.589966 67.8807 0.727983 68.1264 0.973656C68.372 1.21933 68.5101 1.55253 68.5101 1.89997V3.89997H70.5701C70.7261 3.88215 70.8842 3.89707 71.0342 3.94378C71.1842 3.99048 71.3228 4.06795 71.4412 4.17124C71.5595 4.27452 71.6551 4.40135 71.7217 4.54363C71.7883 4.68591 71.8245 4.84051 71.8279 4.99757C71.8314 5.15462 71.8021 5.31068 71.7419 5.45578C71.6817 5.60088 71.5919 5.73182 71.4783 5.84026C71.3646 5.94871 71.2296 6.03225 71.0818 6.08558C70.934 6.1389 70.7768 6.16083 70.6201 6.14997H68.5101V11.77C68.4805 11.9632 68.4962 12.1607 68.5561 12.3468C68.616 12.533 68.7184 12.7026 68.8552 12.8423C68.992 12.982 69.1595 13.0879 69.3443 13.1517C69.5291 13.2156 69.7262 13.2355 69.9201 13.21C70.1381 13.202 70.3553 13.1786 70.5701 13.14C70.862 13.1399 71.1424 13.2537 71.3516 13.4573C71.5608 13.6609 71.6822 13.9382 71.6901 14.23C71.6778 14.4452 71.6059 14.6528 71.4822 14.8295C71.3586 15.0061 71.1881 15.1448 70.9901 15.23C70.4076 15.4299 69.7959 15.5313 69.1801 15.53C67.2601 15.53 65.8901 14.68 65.8901 12.16" fill="#FED42C"/>
<path d="M73.8301 14.17C73.6695 14.0799 73.537 13.9473 73.447 13.7868C73.357 13.6262 73.3131 13.4439 73.3201 13.26C73.32 12.9797 73.43 12.7105 73.6263 12.5104C73.8227 12.3103 74.0898 12.1952 74.3701 12.19V12.19C74.5733 12.1969 74.772 12.2517 74.9501 12.35C75.9133 13.0362 77.058 13.4223 78.2401 13.46C79.3701 13.46 80.0301 12.97 80.0301 12.22C80.0301 11.32 78.8001 11.02 77.4601 10.61C75.7601 10.13 73.8801 9.44 73.8801 7.25C73.8801 5.07 75.6901 3.75 77.9601 3.75C79.2168 3.77032 80.4507 4.08908 81.5601 4.68C81.7486 4.77042 81.9078 4.91226 82.0192 5.08918C82.1307 5.2661 82.1899 5.4709 82.1901 5.68C82.1931 5.95276 82.0908 6.21618 81.9046 6.41547C81.7183 6.61476 81.4624 6.73458 81.1901 6.75V6.75C81.0038 6.75361 80.8202 6.70512 80.6601 6.61C79.8327 6.1543 78.9132 5.89111 77.9701 5.84C76.9701 5.84 76.3701 6.31 76.3701 6.96C76.3701 7.8 77.6001 8.15 78.9501 8.58C80.6201 9.1 82.5101 9.86 82.5101 11.92C82.5101 14.32 80.6401 15.52 78.2501 15.52C76.6958 15.5081 75.1806 15.031 73.9001 14.15" fill="#FED42C"/>
<path d="M7.12977 10.44V8.86003C7.12977 7.10003 8.12977 6.01003 9.57977 6.01003C9.9505 5.99759 10.3179 6.08357 10.6446 6.25922C10.9713 6.43487 11.2457 6.69393 11.4398 7.01003C12.0747 6.75232 12.7545 6.62316 13.4398 6.63003C14.0158 6.62759 14.5889 6.71187 15.1398 6.88003C15.3597 6.59841 15.6424 6.37216 15.9654 6.21936C16.2883 6.06655 16.6426 5.99144 16.9998 6.00003C18.4798 6.00003 19.3198 7.00003 19.3198 8.80003V10.86C20.0296 10.1252 20.9414 9.61711 21.9398 9.40003V8.00003C21.9398 5.20003 20.4098 3.61003 17.9398 3.61003C17.1817 3.60108 16.433 3.77885 15.7598 4.12764C15.0867 4.47643 14.5097 4.98553 14.0798 5.61003C13.7648 4.98117 13.2738 4.45737 12.6667 4.10231C12.0595 3.74726 11.3623 3.57623 10.6598 3.61003C9.95391 3.61565 9.26133 3.80252 8.64846 4.15274C8.03558 4.50295 7.52296 5.00476 7.15977 5.61003V5.06003C7.16242 4.88764 7.13075 4.71644 7.06661 4.5564C7.00247 4.39636 6.90713 4.25068 6.78615 4.12783C6.66517 4.00499 6.52096 3.90744 6.36192 3.84086C6.20288 3.77429 6.03218 3.74001 5.85977 3.74003V3.74003C5.68755 3.73058 5.5152 3.75603 5.35307 3.81486C5.19093 3.87369 5.04236 3.96467 4.91627 4.08236C4.79018 4.20004 4.68918 4.34199 4.61932 4.49969C4.54947 4.65738 4.5122 4.82757 4.50977 5.00003V9.38003C5.48299 9.40277 6.41452 9.77965 7.12977 10.44" fill="#FED42C"/>
<path d="M5.09033 33.15L7.00033 21.9C7.00033 21.9 -0.639676 15.45 2.19032 11C4.19032 7.91997 6.70033 9.84997 8.07033 11.31C8.17099 11.4071 8.30543 11.4614 8.44533 11.4614C8.58522 11.4614 8.71966 11.4071 8.82033 11.31C8.91267 11.2291 8.97591 11.1202 9.00033 11C9.11033 9.24997 9.87033 6.58997 13.4703 6.58997C17.0703 6.58997 17.8303 9.23997 17.9403 11C17.9431 11.1044 17.9772 11.2056 18.0383 11.2903C18.0994 11.3751 18.1847 11.4395 18.2829 11.4751C18.3811 11.5107 18.4878 11.5159 18.589 11.49C18.6902 11.4641 18.7813 11.4084 18.8503 11.33C20.2203 9.86997 22.7803 7.93997 24.7403 11.02C27.5603 15.46 19.9103 21.91 19.9103 21.91L21.8303 33.12" stroke="#FED401" stroke-width="2.41" stroke-miterlimit="10" stroke-linecap="round"/>
</svg>
