<svg id="Layer_1" data-name="Layer 1" xmlns="http://www.w3.org/2000/svg" width="83" height="35" viewBox="0 0 83 35"><defs><style>.cls-1{fill:#fed42c;}.cls-2{fill:none;stroke:#fed401;stroke-linecap:round;stroke-miterlimit:10;stroke-width:35.5px;}.cls-3{fill:#acc2c6;}</style></defs><path id="Path_309" data-name="Path 309" class="cls-1" d="M495,270.51c-5.79-1.92-12.19-6.75-12.19-15.92a15.67,15.67,0,0,1,15.26-16h.43a21.08,21.08,0,0,1,7.11,1.33,45,45,0,0,0,13.27,2.17c11.58,0,17.61-4.7,24-17.85l1.2-3.5L481.58,80.89a27.43,27.43,0,0,1-2.29-9.17A18.57,18.57,0,0,1,497.5,52.78h1c9.89,0,15.31,5.79,18.93,14.72l45.36,112.06,42-112.06c3.25-8,8.56-14.71,18.45-14.71a18.38,18.38,0,0,1,18.7,18.06V71a35.81,35.81,0,0,1-1.69,9.29L578.56,228.06c-14.35,34.5-29.67,47.28-56.69,47.28a69.51,69.51,0,0,1-26.9-4.83"/><path id="Path_310" data-name="Path 310" class="cls-1" d="M678.44,72.33a19,19,0,0,1,18.42-19.54h.64A19.31,19.31,0,0,1,717,71.86v11c12.43-17.6,29.92-31.6,57.42-31.6,39.56,0,78.17,31.24,78.17,87.45v.61c0,55.85-38.24,87.45-78.17,87.45-28.11,0-45.6-14-57.42-29.67v59.71a19.3,19.3,0,0,1-38.6,0Zm135,67v-.61c0-32.57-22.07-53.92-48.13-53.92s-49.21,21.72-49.21,53.92v.61c0,32.32,23,53.92,49.21,53.92,26.42,0,48.13-20.75,48.13-53.92"/><path id="Path_311" data-name="Path 311" class="cls-1" d="M969.87,227.09c-48.85,0-86.49-35.46-86.49-87.45V139c0-48.25,34.14-87.81,82.27-87.81,53.68,0,80.1,44,80.1,83a18,18,0,0,1-17.54,18.45H922c4.11,27.5,23.53,42.82,48.5,42.82a60.1,60.1,0,0,0,39.92-14.72,14.52,14.52,0,0,1,9.89-3.5,15.28,15.28,0,0,1,15.33,15.23c0,.15,0,.3,0,.45a17.48,17.48,0,0,1-5.06,11.83c-15.32,13.63-34.62,22.31-60.68,22.31m38.24-99.88c-2.53-25-17.25-44.39-42.7-44.39-23.64,0-40.17,18.22-43.79,44.39Z"/><path id="Path_312" data-name="Path 312" class="cls-1" d="M1093.27,176.67V88h-6.39a16.59,16.59,0,1,1,0-33.17h6.39V26a19.3,19.3,0,0,1,38.6,0V54.84h30.28a16.59,16.59,0,0,1,.77,33.17h-31.05v82.63c0,15,7.72,21.11,20.75,21.11a84.5,84.5,0,0,0,9.53-1,16.23,16.23,0,0,1,16.4,15.92,16.86,16.86,0,0,1-10.25,15.08,79.08,79.08,0,0,1-26.54,4.34c-28.34,0-48.49-12.43-48.49-49.46"/><path id="Path_313" data-name="Path 313" class="cls-1" d="M1210,206.34a14.8,14.8,0,0,1-7.48-13.38A15.58,15.58,0,0,1,1218,177.27h.21a18.28,18.28,0,0,1,8.45,2.3c16.16,10.85,33,16.28,48.37,16.28,16.65,0,26.3-7.12,26.3-18.21V177c0-13.15-18-17.61-37.76-23.64-25-7-52.59-17.25-52.59-49.46v-.6c0-32,26.53-51.39,60-51.39a116.06,116.06,0,0,1,53,13.63,16.41,16.41,0,0,1,9.28,14.72A15.54,15.54,0,0,1,1317.78,96c-.16,0-.33,0-.5,0a15,15,0,0,1-7.72-1.92c-13.76-7-27.74-11.46-39.56-11.46-15,0-23.53,7-23.53,16.52v.73c0,12.42,18.1,17.49,37.88,23.88,24.6,7.6,52.35,18.82,52.35,49.1v.72c0,35.34-27.51,53-62.61,53a115,115,0,0,1-64-20.14"/><path id="Path_314" data-name="Path 314" class="cls-1" d="M229.23,151.46V128.18c0-25.82,14.71-41.86,36.06-41.86,12.19,0,21.48,4.94,27.27,14a74.15,74.15,0,0,1,29.79-5.55,80.65,80.65,0,0,1,25,3.62c6.39-7.84,15.68-12.06,26.78-12.06,21.71,0,34.13,14.47,34.13,41.25v30.28c10.62-10,24.38-19.78,38.73-21.71V115.75c0-41.25-22.44-64.53-59.23-64.53C362.4,51.22,344.42,63,331,81c-8.92-18-26.17-29.79-50.42-29.79-25.81,0-40.53,14.11-51.39,29.07v-8a19.24,19.24,0,0,0-19.09-19.42h-.32a19,19,0,0,0-19.19,18.77c0,.22,0,.43,0,.65V135.9c13.75-1,27.26,6.39,38.6,15.56"/><path id="Path_315" data-name="Path 315" class="cls-2" d="M199.2,485.4,227.54,320S115,225.16,156.49,159.9C185.32,114.54,223,143,243.1,164.36a7.72,7.72,0,0,0,13.39-4.82c1.69-25.69,12.91-64.78,65.87-64.78s64.17,39.09,65.86,64.78a7.72,7.72,0,0,0,13.39,4.83c20.14-21.36,57.78-49.82,86.61-4.47C529.71,225.16,417.17,320,417.17,320l28.24,164.86.11.62"/><path class="cls-3" d="M860.38,267.81v82.84q14.42-15.07,36-15.08a56.33,56.33,0,0,1,23.52,4.84,55.5,55.5,0,0,1,18.24,13A60.29,60.29,0,0,1,950,372.82a68.16,68.16,0,0,1-.11,47.84,59.69,59.69,0,0,1-12.27,19.58A58.53,58.53,0,0,1,919,453.41,55.4,55.4,0,0,1,896,458.25q-22.51,0-35.57-16.44v12.84H819.64V267.81Zm51.33,129.43a26.39,26.39,0,0,0-7.66-18.68,28,28,0,0,0-8.33-5.74,24.9,24.9,0,0,0-10.35-2.14,25.46,25.46,0,0,0-10.13,2,25.13,25.13,0,0,0-8.22,5.63,28.57,28.57,0,0,0-5.62,8.44A25,25,0,0,0,859.26,397a25.45,25.45,0,0,0,2,10.13,25.13,25.13,0,0,0,5.63,8.22,28.57,28.57,0,0,0,8.44,5.62,25,25,0,0,0,10.24,2.14,25.3,25.3,0,0,0,18.35-7.65,29.12,29.12,0,0,0,5.63-8.33A23.85,23.85,0,0,0,911.71,397.24Z"/><path class="cls-3" d="M1014.13,403.77q0,26.34,24.76,26.34,13.27,0,20-10.81h39.4q-11.94,39.63-59.66,39.62a78.24,78.24,0,0,1-26.78-4.39A59.73,59.73,0,0,1,991.05,442a55.54,55.54,0,0,1-13.39-19.36,64.51,64.51,0,0,1-4.73-25.21,71.38,71.38,0,0,1,4.5-26,54.78,54.78,0,0,1,12.84-19.7,56.87,56.87,0,0,1,20.14-12.49,76.14,76.14,0,0,1,26.68-4.39,74.46,74.46,0,0,1,26.33,4.39A53.32,53.32,0,0,1,1083.23,352a55.11,55.11,0,0,1,12.38,20.37,80.74,80.74,0,0,1,4.28,27.13v4.27Zm47.72-23.63a24.49,24.49,0,0,0-8.33-13.73,23.35,23.35,0,0,0-15.31-5.18q-9.45,0-15.42,4.95t-7.54,14Z"/><path class="cls-3" d="M1168.54,373.16v81.49H1127.8V373.16h-13.51v-34h13.51V304.5h40.74v34.67h23.19v34Z"/><path class="cls-3" d="M1296.17,339.17h41V454.65h-41V441.81q-13.05,16.44-35.34,16.44a57.28,57.28,0,0,1-23.18-4.62,55.76,55.76,0,0,1-18.46-12.94,59.69,59.69,0,0,1-12.27-19.58,67.11,67.11,0,0,1-4.39-24.54,65.07,65.07,0,0,1,4.28-23.52,60.6,60.6,0,0,1,11.93-19.48A56.17,56.17,0,0,1,1237,340.41a55.56,55.56,0,0,1,23.41-4.84q21.61,0,35.79,15.08Zm-51.32,57.4a27,27,0,0,0,7.54,18.91,24.93,24.93,0,0,0,8.33,5.63,26.84,26.84,0,0,0,10.47,2,26.27,26.27,0,0,0,10.24-2,24.93,24.93,0,0,0,8.33-5.63,29.33,29.33,0,0,0,5.63-8.33,24.38,24.38,0,0,0,2.14-10.13,25.16,25.16,0,0,0-2.14-10.24,28.79,28.79,0,0,0-5.63-8.44,24.78,24.78,0,0,0-8.33-5.63,26.28,26.28,0,0,0-10.24-2,26.84,26.84,0,0,0-10.47,2,24.78,24.78,0,0,0-8.33,5.63,27.67,27.67,0,0,0-5.51,8.21A24.69,24.69,0,0,0,1244.85,396.57Z"/></svg>