<svg id="Layer_1" data-name="Layer 1" xmlns="http://www.w3.org/2000/svg" width="83" height="35" viewBox="0 0 83 35"><defs><style>.cls-1{fill:#fed42c;}.cls-2{fill:none;stroke:#fed401;stroke-linecap:round;stroke-miterlimit:10;stroke-width:2.39px;}.cls-3{fill:#acc2c6;}</style></defs><path id="Path_309" data-name="Path 309" class="cls-1" d="M25.58,18.6a1.11,1.11,0,0,1-.82-1.07,1.07,1.07,0,0,1,1-1.09h0a2,2,0,0,1,.48.09,2.73,2.73,0,0,0,.89.15c.78,0,1.19-.32,1.62-1.2l.08-.24L24.68,5.83a1.71,1.71,0,0,1-.15-.62,1.25,1.25,0,0,1,1.22-1.28h.07a1.32,1.32,0,0,1,1.27,1l3.06,7.55L33,4.92a1.34,1.34,0,0,1,1.24-1,1.25,1.25,0,0,1,1.26,1.22h0a2.2,2.2,0,0,1-.12.62l-4.15,10c-1,2.32-2,3.18-3.82,3.18a4.67,4.67,0,0,1-1.81-.32"/><path id="Path_310" data-name="Path 310" class="cls-1" d="M37.94,5.25a1.28,1.28,0,0,1,1.24-1.32h0a1.31,1.31,0,0,1,1.32,1.29V6a4.53,4.53,0,0,1,3.87-2.13c2.66,0,5.26,2.1,5.26,5.89v0c0,3.76-2.57,5.89-5.26,5.89a4.62,4.62,0,0,1-3.87-2v4a1.3,1.3,0,0,1-2.6,0ZM47,9.76v0a3.35,3.35,0,0,0-3.24-3.63,3.42,3.42,0,0,0-3.31,3.63v0a3.42,3.42,0,0,0,3.31,3.63A3.32,3.32,0,0,0,47,9.76"/><path id="Path_311" data-name="Path 311" class="cls-1" d="M57.57,15.67a5.67,5.67,0,0,1-5.83-5.89v0a5.63,5.63,0,0,1,5.55-5.91,5.36,5.36,0,0,1,5.39,5.59,1.21,1.21,0,0,1-1.18,1.24H54.34a3.17,3.17,0,0,0,3.27,2.88,4,4,0,0,0,2.69-1,1,1,0,0,1,.67-.23,1,1,0,0,1,1,1v0a1.19,1.19,0,0,1-.34.8,5.86,5.86,0,0,1-4.09,1.5M60.15,9C60,7.26,59,6,57.27,6s-2.71,1.22-3,3Z"/><path id="Path_312" data-name="Path 312" class="cls-1" d="M65.88,12.28v-6h-.43a1.12,1.12,0,1,1,0-2.23h.43V2.13a1.3,1.3,0,0,1,2.6,0V4.07h2a1.12,1.12,0,0,1,0,2.23H68.48v5.57a1.24,1.24,0,0,0,1.4,1.42c.21,0,.43,0,.64-.06a1.1,1.1,0,0,1,1.11,1.07,1.18,1.18,0,0,1-.69,1,5.73,5.73,0,0,1-1.79.29c-1.91,0-3.27-.84-3.27-3.33"/><path id="Path_313" data-name="Path 313" class="cls-1" d="M73.75,14.28a1,1,0,0,1-.51-.91,1,1,0,0,1,1.05-1h0a1.16,1.16,0,0,1,.57.15,6,6,0,0,0,3.26,1.1c1.12,0,1.77-.48,1.77-1.23v0c0-.88-1.21-1.19-2.55-1.59-1.68-.47-3.54-1.16-3.54-3.33v0c0-2.16,1.79-3.46,4-3.46a7.79,7.79,0,0,1,3.57.91,1.11,1.11,0,0,1,.62,1,1,1,0,0,1-1,1.06h0a1,1,0,0,1-.52-.13,6.24,6.24,0,0,0-2.66-.77c-1,0-1.59.47-1.59,1.11v0c0,.84,1.22,1.18,2.55,1.61,1.66.51,3.53,1.27,3.53,3.31v.05c0,2.38-1.85,3.56-4.22,3.56a7.71,7.71,0,0,1-4.31-1.35"/><path id="Path_314" data-name="Path 314" class="cls-1" d="M7.68,10.58V9c0-1.74,1-2.82,2.43-2.82A2.06,2.06,0,0,1,12,7.13a4.92,4.92,0,0,1,2-.37A5.34,5.34,0,0,1,15.64,7a2.26,2.26,0,0,1,1.8-.81c1.46,0,2.3,1,2.3,2.78v2a5,5,0,0,1,2.61-1.46V8.17c0-2.78-1.51-4.34-4-4.34a4.55,4.55,0,0,0-3.82,2,3.59,3.59,0,0,0-3.4-2,4.08,4.08,0,0,0-3.46,2V5.25A1.3,1.3,0,0,0,6.4,3.94h0A1.28,1.28,0,0,0,5.08,5.21V9.53a3.9,3.9,0,0,1,2.6,1.05"/><path id="Path_315" data-name="Path 315" class="cls-2" d="M5.66,33.07,7.57,21.93S0,15.54,2.78,11.15c2-3.06,4.48-1.14,5.84.3a.52.52,0,0,0,.73,0,.53.53,0,0,0,.17-.36c.11-1.73.87-4.36,4.44-4.36s4.32,2.63,4.43,4.36a.52.52,0,0,0,.9.33c1.36-1.44,3.9-3.36,5.84-.3,2.79,4.39-4.79,10.78-4.79,10.78L22.24,33v0"/><path class="cls-3" d="M50.2,18.42V24a3.19,3.19,0,0,1,2.42-1,3.77,3.77,0,0,1,1.59.33,3.62,3.62,0,0,1,1.22.87,4,4,0,0,1,.8,1.31,4.46,4.46,0,0,1,.29,1.6,4.36,4.36,0,0,1-.3,1.62A3.88,3.88,0,0,1,55.4,30a4.13,4.13,0,0,1-1.25.89,3.89,3.89,0,0,1-1.56.32,2.89,2.89,0,0,1-2.39-1.1V31H47.45V18.42Zm3.45,8.71a1.8,1.8,0,0,0-.13-.69,2,2,0,0,0-.38-.56,1.77,1.77,0,0,0-1.26-.54,1.72,1.72,0,0,0-.68.14,1.68,1.68,0,0,0-.56.38,2.1,2.1,0,0,0-.38.57,1.81,1.81,0,0,0-.14.69,1.72,1.72,0,0,0,.14.68,1.51,1.51,0,0,0,.38.55,1.79,1.79,0,0,0,.56.38,1.65,1.65,0,0,0,.69.15,1.77,1.77,0,0,0,.69-.14,1.75,1.75,0,0,0,.55-.38,2,2,0,0,0,.38-.56A1.67,1.67,0,0,0,53.65,27.13Z"/><path class="cls-3" d="M60.55,27.57c0,1.19.56,1.78,1.67,1.78a1.5,1.5,0,0,0,1.35-.73h2.65q-.8,2.67-4,2.67a5.23,5.23,0,0,1-1.8-.3,3.8,3.8,0,0,1-1.4-.84,3.86,3.86,0,0,1-.91-1.3,4.4,4.4,0,0,1-.31-1.7,4.83,4.83,0,0,1,.3-1.75,3.68,3.68,0,0,1,.86-1.33,4,4,0,0,1,1.36-.84,5.07,5.07,0,0,1,1.8-.3,4.94,4.94,0,0,1,1.77.3,3.6,3.6,0,0,1,1.34.86A3.7,3.7,0,0,1,66,25.46a5.49,5.49,0,0,1,.29,1.83v.28ZM63.77,26a1.67,1.67,0,0,0-.57-.92,1.52,1.52,0,0,0-1-.35,1.6,1.6,0,0,0-1,.33,1.54,1.54,0,0,0-.5.94Z"/><path class="cls-3" d="M71,25.51V31H68.21V25.51H67.3V23.22h.91V20.89H71v2.33h1.56v2.29Z"/><path class="cls-3" d="M79.55,23.22h2.76V31H79.55v-.86a2.9,2.9,0,0,1-2.38,1.1,3.78,3.78,0,0,1-1.56-.31,3.81,3.81,0,0,1-2.07-2.19,4.6,4.6,0,0,1,0-3.24,4.16,4.16,0,0,1,.8-1.31,3.85,3.85,0,0,1,1.23-.88A3.72,3.72,0,0,1,77.14,23a3.17,3.17,0,0,1,2.41,1Zm-3.46,3.87a1.78,1.78,0,0,0,.14.7,1.7,1.7,0,0,0,.37.57,1.68,1.68,0,0,0,.56.38,1.83,1.83,0,0,0,.71.14,1.81,1.81,0,0,0,.69-.14,1.79,1.79,0,0,0,.56-.38,2.21,2.21,0,0,0,.38-.56,1.72,1.72,0,0,0,.14-.68,1.81,1.81,0,0,0-.14-.69,2.1,2.1,0,0,0-.38-.57,1.79,1.79,0,0,0-.56-.38,1.81,1.81,0,0,0-.69-.14,1.83,1.83,0,0,0-.71.14,1.68,1.68,0,0,0-.56.38,1.84,1.84,0,0,0-.37.55A1.72,1.72,0,0,0,76.09,27.09Z"/></svg>