<svg xmlns="http://www.w3.org/2000/svg" xmlns:xlink="http://www.w3.org/1999/xlink" width="1840" height="340" viewBox="0 0 1840 340"><defs><clipPath id="b"><rect width="1840" height="340"/></clipPath></defs><g id="a" clip-path="url(#b)"><rect width="1840" height="340" fill="none"/><g transform="translate(-28 517)"><path d="M355.3-460.746H343v21.364h12.3v62.149h25.248v-62.149h14.89v-21.364h-14.89V-497H355.3Z" transform="translate(-104.021 0)" fill="#404142"/><path d="M1004-484.376v12.624h25.248V-497H1004Z" transform="translate(-337.098 0)" fill="#404142"/><path d="M48-361.343h73.8v-25.248H73.248l.324-35.283h47.907L121.8-446.8H73.248v-23.953H121.8V-496H48Z" transform="translate(0 -0.353)" fill="#404142"/><path d="M230.339-447.116a61.894,61.894,0,0,0-10.941,2.59c-12.818,4.273-19.422,10.747-22.788,22.335-.971,3.3-1.165,7.9-1.36,35.995-.194,19.033-.065,32.24.259,32.24a6.546,6.546,0,0,0,2.2-1.683c3.172-3.366,10.488-7.639,17.738-10.293l3.884-1.489.453-18.968c.194-10.488.712-20.587,1.1-22.529,2.072-10.229,9.452-15.537,19.163-13.725,4.6.842,7.445,2.59,9.581,5.7,3.366,5.114,4.337,12.365,4.337,33.535v14.89l4.273,1.23a54.241,54.241,0,0,1,15.8,7.574c1.618,1.23,3.3,2.525,3.755,2.784.712.453.842-4.92.647-30.427-.324-33.664-.388-34.376-4.143-41.886C267.952-441.743,249.178-449.382,230.339-447.116Z" transform="translate(-51.89 -17.45)" fill="#404142"/><path d="M647.722-446.238c-16.962,2.784-28.42,12.624-31.01,26.8-.453,2.46-.712,16.508-.712,39.62v35.8l12.041-.129,11.977-.194V-367c-.065-12.495.194-27.19.583-32.693.583-9.387.777-10.293,2.719-14.243,1.554-2.978,2.913-4.791,4.92-6.15,2.849-1.942,2.913-1.942,11.847-1.942h9v-24.083l-2.4-.453C663.259-447.079,651.995-446.885,647.722-446.238Z" transform="translate(-200.284 -17.681)" fill="#404142"/><path d="M927.2-446.315a72.3,72.3,0,0,0-8.222,2.266c-11.977,3.949-18.968,10.747-22.335,21.623-1.23,4.014-1.295,6.344-1.554,41.627L894.9-343.38h24.665v-27.19c0-37.16.777-43.051,6.539-48.166,3.431-3.172,6.215-3.82,15.019-3.561l7.575.259v-24.083l-2.978-.453A98.074,98.074,0,0,0,927.2-446.315Z" transform="translate(-298.628 -17.668)" fill="#404142"/><path d="M475.274-444.479a55,55,0,0,0-17.156,5.244c-5.309,2.525-6.992,3.82-12.3,9.128-5.244,5.244-6.668,7.186-9.258,12.365-4.4,8.869-5.7,14.566-5.762,25.248-.065,10.488.971,15.278,4.985,23.63a48.588,48.588,0,0,0,31.722,26.219c7.963,2.136,20.134,2.4,28.809.712a48.208,48.208,0,0,0,28.226-16.314,26.316,26.316,0,0,0,2.849-3.884c0-.453-19.163-9.646-20.134-9.646a24.848,24.848,0,0,0-4.467,2.849c-10.811,7.963-26.025,8.675-36.836,1.683-5.373-3.366-9.9-9.97-10.811-15.473l-.453-2.654H534.51v-4.079c0-16.185-4.726-29.391-14.048-39.361-5.632-5.956-10.876-9.581-17.674-12.171C494.825-444.025,483.431-445.514,475.274-444.479Zm19.875,23.306A27.4,27.4,0,0,1,507.32-410.3c3.431,5.956,5.5,5.5-24.471,5.5-14.566,0-26.608-.194-26.867-.388-.518-.583,2.849-6.344,5.7-9.776,2.59-3.043,6.28-5.438,11.459-7.315,2.784-1.036,4.791-1.295,10.552-1.165C490.164-423.244,491.2-423.05,495.149-421.173Z" transform="translate(-134.979 -18.404)" fill="#404142"/><path d="M769.619-444.2c-7.963,1.683-18,6.733-21.688,10.876-.712.777-1.489,1.424-1.813,1.424-.259,0-.518-2.331-.518-5.179v-5.179H721V-322.49h24.6V-337.7c0-8.351.13-15.214.324-15.214A30.678,30.678,0,0,1,749.874-350a42.1,42.1,0,0,0,35.542,8.416c17.026-3.561,31.269-17.738,36.318-36.254,1.877-6.927,1.748-23.953-.259-30.945a59.827,59.827,0,0,0-8.287-17.35c-5.568-7.574-15.861-14.7-24.536-17.026C783.861-444.458,773.5-444.976,769.619-444.2Zm12.495,24.212c9.97,4.273,16.573,15.084,16.573,27.255,0,12.559-5.891,22.335-16.573,27.32-3.431,1.618-4.532,1.813-10.617,1.813-6.215,0-7.121-.194-11.006-2.007-8.61-4.079-14.242-12.041-15.6-22.076-.842-6.344,0-13.466,2.2-18.451a28.564,28.564,0,0,1,16.185-14.5C767.029-421.864,778.682-421.476,782.113-419.987Z" transform="translate(-237.308 -18.49)" fill="#404142"/><path d="M1092.381-443.868c-17.35,3.755-27.514,19.422-22.788,35.024,3.043,9.905,10.423,16.638,27.9,25.378,12.236,6.15,15.8,10.293,13.207,15.408-2.784,5.7-10.488,6.8-18.969,2.719a43.4,43.4,0,0,1-8.351-5.5l-3.5-3.107-5.762,6.085c-8.351,8.869-9.128,10.034-8.351,11.523,1.489,2.784,8.74,8.61,13.854,11.135a45.728,45.728,0,0,0,30.816,3.237c9.711-2.331,17.415-8.222,21.364-16.314,4.726-9.581,4.014-21.429-1.813-29.909-3.949-5.7-9.387-9.517-24.471-17.156-10.682-5.373-13.789-7.833-13.789-10.682,0-2.2,2.266-4.726,4.92-5.568,5.244-1.748,11.912.388,17.8,5.632l3.3,2.978,7.833-7.833,7.833-7.833-4.6-4.467A40.363,40.363,0,0,0,1092.381-443.868Z" transform="translate(-358.797 -18.432)" fill="#404142"/><path d="M1227.7-444.509c-14.113,2.59-20.716,5.7-29.068,13.53a51.61,51.61,0,0,0-13.66,22.011c-1.942,6.15-2.525,21.752-1.1,28.615,4.014,18.968,18.062,33.34,37.1,38.131,6.344,1.554,19.033,1.877,25.831.647,3.237-.583,6.862-1.424,8.092-1.813a56.392,56.392,0,0,0,14.955-8.092c3.755-2.913,9.646-9.452,9.646-10.682,0-.324-1.23-1.1-2.719-1.748-1.554-.647-5.956-2.719-9.776-4.532a71.087,71.087,0,0,0-7.7-3.3,12.647,12.647,0,0,0-3.3,2.2c-5.826,4.726-12.948,7.057-21.17,6.992-12.818-.065-22.853-6.6-26.608-17.285a25.888,25.888,0,0,1-1.23-4.532c0-.842,4.6-.971,39.944-.971H1286.8l-.388-8.287c-.453-8.8-1.878-15.408-4.661-21.752a49.746,49.746,0,0,0-33.988-27.9C1242.977-444.315,1230.806-445.092,1227.7-444.509Zm18,22.659a28.26,28.26,0,0,1,13.725,11.523c3.5,6.021,5.567,5.568-24.6,5.568-21.428,0-26.543-.194-26.543-.842,0-1.1,4.208-8.092,6.021-10.1,2.072-2.266,6.086-4.661,10.488-6.28C1230.612-424.181,1239.61-424.116,1245.7-421.85Z" transform="translate(-400.244 -18.439)" fill="#404142"/><path d="M1005-341.3l24.277-.324L1029.6-441H1005Z" transform="translate(-337.45 -19.746)" fill="#404142"/><path d="M230.372-309.074a49.488,49.488,0,0,0-18.256,5.114c-25.9,12.754-29.262,41.951-6.8,58.459,4.726,3.431,10.747,6.344,22.529,10.876,13.789,5.244,18.451,7.51,22.4,11.006,4.014,3.561,5.762,7.574,5.826,13.207,0,8.028-4.208,14.5-11.912,18.321-3.237,1.554-4.208,1.748-10.682,1.748-6.409-.065-7.51-.259-10.747-1.813-6.992-3.366-10.293-8.092-11.977-17.35-.583-2.978-1.1-5.5-1.165-5.568s-5.762,1.036-12.689,2.4c-6.927,1.424-12.754,2.59-12.883,2.59-.583,0,.647,7.186,1.877,10.747,6.474,19.1,21.558,30.233,42.987,31.722,16.314,1.165,31.851-4.467,41.951-15.149,7.251-7.7,10.617-15.343,11.329-25.572,1.165-18.451-7.51-31.722-26.608-40.591-2.849-1.36-9.322-3.949-14.307-5.826-13.336-4.855-15.278-5.762-18.645-8.157-4.079-2.978-5.632-5.568-5.632-9.646,0-6.992,6.15-12.559,15.343-13.919,10.747-1.489,17.738,1.554,23.759,10.488,1.23,1.748,2.331,2.849,2.719,2.525.324-.259,3.82-2.2,7.7-4.273,3.949-2.007,8.351-4.467,9.84-5.309,2.719-1.554,2.719-1.618,1.813-3.3-1.748-3.366-6.8-9.128-10.811-12.495C257.756-306.809,244.291-310.563,230.372-309.074Z" transform="translate(-47.909 -66.152)" fill="#e8212e"/><path d="M362-269.752h25.248V-295H362Z" transform="translate(-110.72 -71.228)" fill="#e8212e"/><path d="M1359.529-253.97c-17.544,3.366-27.385,11.265-31.075,25.054-.906,3.625-1.1,8.869-1.295,40.85l-.259,36.772h24.536l.324-30.621c.194-21.17.518-31.787,1.1-34.635,1.1-5.7,3.949-9.711,8.416-11.977,3.431-1.813,3.82-1.877,11.524-1.554l7.9.259V-241.67c0-8.222-.259-11.977-.712-12.3C1378.5-254.877,1364.255-254.877,1359.529-253.97Z" transform="translate(-450.956 -85.456)" fill="#e8212e"/><path d="M487.317-248.011c-6.409,1.554-11.912,4.4-17.933,9.258l-2.784,2.2v-5.956H442v94.519h24.6V-175.05c0-15.214.324-28.744.647-31.075,1.36-8.416,6.021-15.343,12.495-18.58,2.59-1.295,4.273-1.618,7.833-1.618,9.776.065,15.084,5.438,16.573,16.962.324,2.59.647,17.479.647,33.082v28.291l12.171-.129,12.106-.194v-36.254c0-39.75,0-39.814-4.014-47.971-2.136-4.467-8.481-10.488-13.336-12.818A38.031,38.031,0,0,0,487.317-248.011Z" transform="translate(-138.929 -87.466)" fill="#e8212e"/><path d="M637.606-247.907c-11.718,2.59-24.083,12.365-29.78,23.565-5.309,10.488-7.056,25.442-4.467,38.52a49.059,49.059,0,0,0,27.449,34.117c11.653,5.114,28.291,4.791,38.2-.712a62.982,62.982,0,0,0,6.409-4.467l3.82-2.978-.324,6.215c-.259,4.661-.712,6.992-1.942,9.711-4.014,8.675-14.566,12.689-30.168,11.394a27.709,27.709,0,0,1-15.8-6.28l-2.331-2.007H615.336c-7.315,0-13.336.194-13.336.388,0,1.489,5.114,10.876,7.833,14.243,8.869,11.135,22.853,16.638,42.339,16.7,19.94.065,32.952-5.05,42.08-16.573,3.5-4.4,5.5-8.61,7.51-15.732,1.489-5.114,1.489-5.568,1.748-52.956l.194-47.712-12.171.129-12.171.194-.194,3.107L678.974-236l-4.014-3.3a46.246,46.246,0,0,0-17.738-8.675A54,54,0,0,0,637.606-247.907Zm26.8,23.953c10.164,4.079,15.926,13.4,15.926,25.831,0,14.89-8.092,25.054-21.946,27.579a21.08,21.08,0,0,1-9,0c-16.185-2.848-25.378-17.221-22.141-34.376,1.877-9.776,10.164-18.256,20.069-20.522A32.267,32.267,0,0,1,664.408-223.954Z" transform="translate(-195.347 -87.505)" fill="#e8212e"/><path d="M817.4-247.929c-9.258,1.942-19.94,9.193-26.154,17.674a55.137,55.137,0,0,0-8.222,17.609c-2.136,7.963-2.136,22.594,0,30.362A48.744,48.744,0,0,0,796.364-159.3c9.97,9.97,21.17,14.437,33.988,13.725,9.711-.583,15.926-2.978,24.083-9.258a32.228,32.228,0,0,1,4.014-2.848c.194,0,.388,2.2.388,4.855v4.855h24.6v-94.519H858.9l-.194,3.366-.194,3.431-2.589-2.331A40.968,40.968,0,0,0,827.114-248.9,54.132,54.132,0,0,0,817.4-247.929Zm26.672,24.018a26.865,26.865,0,0,1,10.941,9.452c6.085,8.416,6.085,25.507-.065,34.441-5.114,7.445-11.718,11.265-20.263,11.782-15.926,1.036-27.773-10.1-28.744-27.061-.583-9.128,1.942-16.832,7.316-22.659,5.956-6.28,11.459-8.481,20.716-8.092C838.962-225.854,840.645-225.53,844.076-223.911Z" transform="translate(-258.615 -87.483)" fill="#e8212e"/><path d="M1016.965-247.966a45.163,45.163,0,0,0-17.285,8.61l-4.014,3.237-.194-3.043-.194-3.043-12.106-.194L971-242.528v130.772h24.6v-22.982c0-12.624.194-22.982.388-22.982a20.275,20.275,0,0,1,3.366,2.59c3.949,3.5,12.3,7.574,17.933,8.74,20,4.208,40.332-6.344,50.172-26.025,8.675-17.35,7.251-40.268-3.5-56.452A44.788,44.788,0,0,0,1016.965-247.966Zm16.379,24.407c8.351,4.143,13.336,11.394,14.825,21.623,1.424,9.711-1.619,19.616-8.028,26.09a30.752,30.752,0,0,1-7.575,5.438c-3.949,1.877-4.791,2.007-11.07,2.007s-7.121-.129-11.135-2.072c-8.74-4.143-14.178-11.718-15.6-21.882-2.072-15.084,4.791-27.838,17.479-32.434,3.69-1.36,5.309-1.554,10.293-1.36C1027.841-226.02,1029.006-225.7,1033.344-223.559Z" transform="translate(-325.462 -87.446)" fill="#e8212e"/><path d="M1185.182-247.85c-12.235,2.4-26.154,12.365-33.017,23.759-10.293,17.091-9.517,40.332,1.877,56.582a51.4,51.4,0,0,0,42.08,22.141,51.738,51.738,0,0,0,50.561-39.491c1.877-7.445,1.554-21.429-.712-27.838-6.668-19.1-21.688-32.11-41.044-35.542A61.56,61.56,0,0,0,1185.182-247.85Zm22.853,24.407c6.862,3.043,12.753,10.488,14.631,18.451,1.165,4.985.518,14.955-1.295,19.551-2.913,7.445-9.581,13.854-16.508,15.8-10.552,2.978-20.975.453-27.643-6.668-5.309-5.7-7.639-11.977-7.639-20.911,0-12.171,5.5-21.558,15.473-26.219C1191.526-226.551,1201.108-226.486,1208.035-223.444Z" transform="translate(-386.795 -87.497)" fill="#e8212e"/><path d="M1455.589-247.854c-8.934,1.748-19.227,7.574-25.572,14.5-10.488,11.394-15.214,26.672-13.336,43.44a47.628,47.628,0,0,0,12.883,28.42c10.423,11.329,24.924,16.767,42.21,15.926,13.077-.647,22.464-3.82,31.01-10.488,3.949-3.172,9.776-9.452,9.776-10.682,0-.259-4.467-2.59-9.97-5.179l-10.034-4.726-2.46,1.942c-10.229,7.9-22.27,9.776-34.247,5.309-7.057-2.654-13.984-11.006-15.408-18.58l-.324-2.072h79.758l-.388-8.287c-1.036-22.076-12.106-39.037-30.492-46.677C1479.93-248.76,1466.141-249.925,1455.589-247.854Zm21.3,20.846c7.7,2.4,13.531,7.251,16.638,13.854l1.554,3.366-26.672.194c-14.631.065-26.737,0-26.931-.129-.453-.518,3.3-6.927,5.826-9.776C1453.906-227.008,1466.594-230.245,1476.888-227.008Z" transform="translate(-482.472 -87.494)" fill="#e8212e"/><path d="M362-144.481s24.665.324,24.6,0c-.13-.259,0-94.519,0-94.519H362Z" transform="translate(-110.72 -90.974)" fill="#e8212e"/></g></g></svg>