<?xml version="1.0" encoding="utf-8"?>
<!-- Generator: Adobe Illustrator 19.2.1, SVG Export Plug-In . SVG Version: 6.00 Build 0)  -->
<svg version="1.1" id="layer" xmlns="http://www.w3.org/2000/svg" xmlns:xlink="http://www.w3.org/1999/xlink" x="0px" y="0px"
	 viewBox="0 0 652 652" style="enable-background:new 0 0 652 652;" xml:space="preserve">
<style type="text/css">
	.st0{fill:#303E49;}
	.st1{fill:#F33540;}
</style>
<polygon class="st0" points="26.2,235.6 70.8,235.6 70.8,250.8 41.6,250.8 41.6,265.6 70.8,265.6 70.8,280.5 41.6,280.5 41.6,302 
	70.8,302 70.8,317.3 26.2,317.3 "/>
<g>
	<path class="st0" d="M239.3,291.7h-48.5c0.7,4.3,2.6,7.7,5.6,10.2c3,2.5,6.9,3.8,11.6,3.8c5.6,0,10.5-2,14.5-5.9l12.7,6
		c-3.2,4.5-7,7.8-11.4,10c-4.4,2.2-9.7,3.2-15.7,3.2c-9.4,0-17.1-3-23-8.9c-5.9-6-8.9-13.4-8.9-22.3c0-9.2,3-16.8,8.9-22.9
		c5.9-6.1,13.3-9.1,22.2-9.1c9.5,0,17.2,3,23.1,9.1c5.9,6.1,8.9,14.1,8.9,24L239.3,291.7z M224.2,279.8c-1-3.4-3-6.1-5.9-8.2
		c-2.9-2.1-6.3-3.1-10.2-3.1c-4.2,0-7.9,1.2-11.1,3.5c-2,1.5-3.8,4.1-5.5,7.8H224.2z"/>
	<polygon class="st0" points="164.7,257.3 164.7,235.1 149.6,235.1 149.6,257.3 141.9,257.3 141.9,270.3 149.6,270.3 149.6,308 
		164.7,308 164.7,270.3 173.6,270.3 173.6,257.3 	"/>
	<path class="st0" d="M281.4,255.4c-7.1-1.5-14.3-0.3-19.7,1.8c-0.4,0.2-0.8,0.3-1.2,0.5c-0.1,0.1-0.2,0.1-0.4,0.2
		c-0.4,0.2-0.8,0.4-1.2,0.6c-1.9,1-3.4,2.1-4.4,3.2h0c-0.2,0.2-0.3,0.3-0.5,0.4c-3.5,3.5-5.2,8.8-5.2,15.7v39.7h14.9v-26.3
		c0-7.2,0.3-11.9,1-14.3c0.6-2.4,1.8-4.1,3.4-5.4c1.3-1,2.8-1.6,4.6-1.8v0c0.5-0.1,0.9-0.1,1.4-0.1c1.3,0,5.1,0.1,7.2,0.5V255.4z"/>
	<path class="st0" d="M391.2,255.4c-7.1-1.5-14.3-0.3-19.7,1.8c-0.4,0.2-0.8,0.3-1.2,0.5c-0.1,0.1-0.2,0.1-0.4,0.2
		c-0.4,0.2-0.8,0.4-1.2,0.6c-1.9,1-3.4,2.1-4.4,3.2h0c-0.2,0.2-0.3,0.3-0.5,0.4c-3.5,3.5-5.2,8.8-5.2,15.7v39.7h14.9v-26.3
		c0-7.2,0.3-11.9,1-14.3c0.6-2.4,1.8-4.1,3.4-5.4c1.3-1,2.8-1.6,4.6-1.8v0c0.5-0.1,0.9-0.1,1.4-0.1c1.3,0,5.1,0.1,7.2,0.5V255.4z"/>
	<rect x="401.7" y="257.3" class="st0" width="15.1" height="60.2"/>
	<path class="st0" d="M466.7,265.7l-9.3,9.3c-3.8-3.8-7.2-5.6-10.3-5.6c-1.7,0-3,0.4-4,1.1c-1,0.7-1.4,1.6-1.4,2.7
		c0,0.8,0.3,1.6,0.9,2.2c0.6,0.7,2.1,1.6,4.5,2.8l5.5,2.8c5.8,2.9,9.8,5.8,12,8.8c2.2,3,3.3,6.5,3.3,10.5c0,5.3-2,9.8-5.9,13.4
		c-3.9,3.6-9.2,5.4-15.8,5.4c-8.8,0-15.8-3.4-21-10.3l9.3-10.1c1.8,2.1,3.8,3.7,6.2,5c2.4,1.3,4.5,1.9,6.3,1.9c2,0,3.6-0.5,4.8-1.4
		c1.2-1,1.8-2.1,1.8-3.3c0-2.3-2.2-4.6-6.6-6.8l-5.1-2.5c-9.7-4.9-14.6-11-14.6-18.4c0-4.8,1.8-8.8,5.5-12.2
		c3.7-3.4,8.3-5.1,14.1-5.1c3.9,0,7.6,0.9,11,2.6C461.4,260,464.3,262.5,466.7,265.7"/>
	<path class="st0" d="M534.6,291.7h-48.5c0.7,4.3,2.6,7.7,5.6,10.2c3,2.5,6.9,3.8,11.6,3.8c5.6,0,10.5-2,14.5-5.9l12.7,6
		c-3.2,4.5-7,7.8-11.4,10c-4.4,2.2-9.7,3.2-15.7,3.2c-9.4,0-17.1-3-23-8.9c-5.9-6-8.9-13.4-8.9-22.3c0-9.2,3-16.8,8.9-22.9
		c5.9-6.1,13.3-9.1,22.2-9.1c9.5,0,17.2,3,23.1,9.1c5.9,6.1,8.9,14.1,8.9,24L534.6,291.7z M519.6,279.8c-1-3.4-3-6.1-5.9-8.2
		c-2.9-2.1-6.3-3.1-10.2-3.1c-4.2,0-7.9,1.2-11.1,3.5c-2,1.5-3.8,4.1-5.5,7.8H519.6z"/>
	<rect x="401.6" y="235.1" class="st0" width="15.4" height="15.4"/>
	<path class="st0" d="M98.9,317.4v-0.5c-0.2,0.1-0.3,0.3-0.5,0.5H98.9z"/>
	<path class="st0" d="M88.5,308c3.1-2.1,6.5-3.7,10.4-4.7v-12.2c0-7.2,0.3-11.9,1-14.3c0.6-2.4,1.8-4.2,3.4-5.4
		c1.3-1,2.8-1.6,4.6-1.8c0.5,0,0.9-0.1,1.4-0.1c0.2,0,0.4,0,0.5,0c0.2,0,0.5,0,0.7,0c1,0.1,2,0.4,3,0.7c0.6,0.3,1.2,0.6,1.8,1
		c1.6,1.2,2.7,3,3.4,5.4c0.7,2.4,1,7.1,1,14.3v11.6c5.7,1.2,10.7,3.7,14.9,7.5v-32.5c0-6.9-1.7-12.2-5.2-15.7c-1.7-1.7-3.5-3-5.4-4
		c-9.2-5.1-20.2-3.8-27.5-0.8c-0.3,0.1-0.5,0.2-0.8,0.3c-0.4,0.2-0.8,0.4-1.2,0.6c-0.1,0-0.2,0.1-0.3,0.1c-2,1-3.5,2.2-4.5,3.3h0
		c-0.2,0.2-0.3,0.3-0.5,0.4c-3.5,3.5-5.2,8.8-5.2,15.7v34.2C85.2,310.5,86.7,309.2,88.5,308"/>
	<path class="st0" d="M344.3,264.6c-5.5-5.9-12.2-8.9-20-8.9c-3.6,0-7,0.7-10.2,2c-3.2,1.4-6.1,3.4-8.8,6.1v-6.6h-15V330h15V311
		c2.9,2.8,5.9,4.8,8.9,6c3,1.2,6.2,1.8,9.7,1.8c7.8,0,14.5-3,20.2-9c5.7-6,8.5-13.5,8.5-22.5C352.6,278.2,349.8,270.6,344.3,264.6
		 M332.8,300.1c-3.1,3.4-7,5-11.6,5c-4.7,0-8.7-1.6-11.8-4.9c-3.1-3.3-4.7-7.6-4.7-13c0-5.2,1.6-9.5,4.7-12.7
		c3.1-3.2,7.1-4.9,11.8-4.9c4.7,0,8.6,1.6,11.7,4.9c3.1,3.3,4.6,7.5,4.6,12.7C337.5,292.5,336,296.8,332.8,300.1"/>
	<rect x="149.4" y="314.6" class="st1" width="15.4" height="15.4"/>
	<path class="st1" d="M228.5,338.7c-4.1-4.2-9.2-6.2-15.1-6.2c-2.9,0-5.7,0.6-8.5,1.7c-2.8,1.1-5.9,3.1-9.3,6v-3.7h-15V394h15v-24
		c0-6.2,0.2-10.3,0.7-12.1c0.8-3.6,2.3-6.4,4.5-8.4c2.2-2,4.8-3,7.8-3c2.4,0,4.3,0.6,5.9,1.8c1.6,1.2,2.7,3,3.4,5.4
		c0.6,2.4,1,7.1,1,14.2V394h14.9v-39.6C233.8,347.5,232,342.3,228.5,338.7"/>
	<rect x="149.5" y="336.5" class="st1" width="15.1" height="57.4"/>
	<path class="st1" d="M487.8,332.5c5.7,0,11,1.4,15.9,4.2c5,2.8,8.9,6.7,11.6,11.5c2.8,4.8,4.2,10.1,4.2,15.7
		c0,5.6-1.4,10.9-4.2,15.8c-2.8,4.9-6.6,8.8-11.5,11.5c-4.8,2.8-10.2,4.2-16,4.2c-8.6,0-15.9-3-22-9.2c-6.1-6.1-9.1-13.5-9.1-22.3
		c0-9.4,3.4-17.2,10.3-23.4C473.1,335.2,480,332.5,487.8,332.5 M488.1,346.7c-4.7,0-8.6,1.6-11.7,4.9c-3.1,3.2-4.7,7.4-4.7,12.5
		c0,5.2,1.5,9.4,4.6,12.7c3.1,3.2,7,4.8,11.7,4.8c4.7,0,8.6-1.6,11.7-4.9c3.1-3.3,4.7-7.5,4.7-12.6c0-5.1-1.5-9.3-4.6-12.5
		C496.8,348.3,492.9,346.7,488.1,346.7"/>
	<path class="st1" d="M560.9,330.9c-7.1-1.5-14.3-0.3-19.7,1.8c-0.4,0.2-0.8,0.3-1.2,0.5c-0.1,0.1-0.2,0.1-0.4,0.2
		c-0.4,0.2-0.8,0.4-1.2,0.6c-1.9,1-3.4,2.1-4.4,3.2h0c-0.2,0.2-0.3,0.3-0.5,0.4c-3.5,3.5-5.2,8.8-5.2,15.7V393h14.9v-26.3
		c0-7.2,0.3-11.9,1-14.3c0.6-2.4,1.8-4.1,3.4-5.4c1.3-1,2.8-1.6,4.6-1.8v0c0.5-0.1,0.9-0.1,1.4-0.1c1.3,0,5.1,0.1,7.2,0.5V330.9z"/>
	<path class="st1" d="M626.1,368.4h-48.3c0.7,4.3,2.6,7.6,5.6,10.2c3,2.5,6.9,3.8,11.6,3.8c5.6,0,10.4-2,14.5-5.9l12.7,5.9
		c-3.2,4.5-6.9,7.8-11.3,9.9c-4.4,2.2-9.6,3.2-15.7,3.2c-9.4,0-17-3-23-8.9c-5.9-5.9-8.9-13.3-8.9-22.3c0-9.1,2.9-16.7,8.8-22.8
		c5.9-6,13.3-9.1,22.2-9.1c9.4,0,17.1,3,23,9.1c5.9,6,8.9,14,8.9,23.9L626.1,368.4z M611.1,356.5c-1-3.3-2.9-6-5.9-8.1
		c-2.9-2.1-6.3-3.1-10.2-3.1c-4.2,0-7.9,1.2-11,3.5c-2,1.5-3.8,4.1-5.5,7.8H611.1z"/>
	<path class="st1" d="M290.5,336.5v4.2c-3.1-2.9-6.1-5-9.2-6.2c-3.1-1.3-6.3-1.9-9.8-1.9c-7.4,0-13.7,2.6-19,7.8
		c-5.9,5.8-8.8,13.4-8.8,22.9c0,8.9,2.8,16.2,8.3,22c5.5,5.8,12.3,8.7,20.4,8.7c3.7,0,7-0.6,9.9-1.7c2.9-1.1,5.7-3,8.3-5.7
		c0,4.8-0.5,8.3-1.5,10.2c-1,2-2.7,3.6-5.2,4.8c-2.5,1.2-5.7,1.9-9.7,1.9c-3.2,0-5.9-0.4-8.2-1.3c-2.3-0.9-4.2-2.1-5.7-3.8h-16.6
		c1.3,4.1,3.4,7.5,6.1,10.4c2.7,2.8,6.1,5,10.1,6.5c4,1.5,8.9,2.2,14.8,2.2c11,0,19.2-3.2,24.7-9.7c4.1-4.8,6.1-12.2,6.1-22.3v-48.9
		H290.5z M286.8,375.7c-3,3.1-6.9,4.7-11.5,4.7c-4.8,0-8.7-1.6-11.9-4.8c-3.2-3.2-4.7-7.3-4.7-12.3c0-4.8,1.5-8.8,4.6-12
		c3.1-3.2,7-4.8,11.7-4.8c4.8,0,8.7,1.6,11.8,4.7c3,3.1,4.6,7.2,4.6,12.2C291.3,368.5,289.8,372.6,286.8,375.7"/>
	<path class="st1" d="M360.9,336.5v4.2c-2.7-2.7-5.6-4.7-8.7-6.1c-3.2-1.4-6.5-2-10.1-2c-7.8,0-14.4,3-19.9,8.9
		c-5.5,5.9-8.2,13.5-8.2,22.7c0,8.9,2.8,16.4,8.5,22.4c5.6,6,12.3,9,20.1,9c3.4,0,6.6-0.6,9.6-1.8c3-1.2,5.9-3.2,8.8-6v6.3h15v-57.4
		H360.9z M356.9,376.8c-3.1,3.3-7,4.9-11.7,4.9c-4.6,0-8.4-1.7-11.5-5c-3.1-3.3-4.7-7.6-4.7-12.8c0-5.1,1.5-9.4,4.6-12.6
		c3.1-3.3,6.9-4.9,11.6-4.9c4.8,0,8.7,1.6,11.8,4.8c3.1,3.2,4.7,7.5,4.7,12.7C361.6,369.2,360,373.5,356.9,376.8"/>
	<path class="st1" d="M134,353.3c-3.5-4-9-7.3-16.5-10l-9-3.3c-6-2.2-9-5.1-9-8.5c0-2.5,1.1-4.5,3.3-6.2c2.3-1.8,5.2-2.6,8.7-2.6
		c2.8,0,5.2,0.5,7,1.5c1.7,0.9,3.5,2.9,5.4,5.9l0.6,0.9l13.1-7l-0.7-1.1c-6-9.4-14.5-14.1-25.2-14.1c-7.9,0-14.6,2.2-20,6.4
		c-5.4,4.3-8.2,9.7-8.2,16.1c0,9.5,6.5,16.8,19.2,21.6l8.7,3.2c2.2,0.8,4.1,1.7,5.7,2.7c1.5,0.9,2.8,1.9,3.7,2.9
		c0.9,1,1.6,2.1,2,3.2c0.4,1.2,0.7,2.5,0.7,3.9c0,3.6-1.2,6.5-3.8,8.8c-2.6,2.4-5.8,3.5-9.7,3.5c-5,0-8.7-1.6-11.3-4.8
		c-1.4-1.6-2.4-4.7-3-9.2l-0.2-1.2l-16.1,3.2l0.2,1.1c1.3,7.8,4.6,13.9,9.8,18.3c5.3,4.3,12,6.5,20.1,6.5c8.5,0,15.7-2.6,21.4-7.6
		c5.7-5.1,8.7-11.6,8.7-19.3C139.3,362.3,137.5,357.3,134,353.3"/>
	<path class="st1" d="M442.3,341.4c-5.5-5.9-12.1-8.9-19.9-8.9c-3.6,0-7,0.7-10.1,2c-3.2,1.4-6.1,3.4-8.8,6.1v-4.2h-14.9v79.3h14.9
		v-28.2c2.9,2.8,5.9,4.8,8.9,6c3,1.2,6.2,1.8,9.6,1.8c7.7,0,14.4-3,20.1-9c5.6-6,8.5-13.5,8.5-22.4
		C450.5,354.9,447.8,347.3,442.3,341.4 M430.8,376.7c-3.1,3.3-7,5-11.6,5c-4.7,0-8.7-1.6-11.8-4.9c-3.1-3.3-4.7-7.6-4.7-12.9
		c0-5.2,1.6-9.4,4.7-12.7c3.1-3.2,7-4.8,11.8-4.8c4.7,0,8.6,1.6,11.7,4.9c3.1,3.3,4.6,7.5,4.6,12.6
		C435.5,369.1,434,373.4,430.8,376.7"/>
</g>
</svg>
