<?xml version="1.0" encoding="UTF-8" standalone="no"?>
<!DOCTYPE svg PUBLIC "-//W3C//DTD SVG 1.1//EN" "http://www.w3.org/Graphics/SVG/1.1/DTD/svg11.dtd">
<svg width="100%" height="100%" viewBox="0 0 1484 509" version="1.1" xmlns="http://www.w3.org/2000/svg" xmlns:xlink="http://www.w3.org/1999/xlink" xml:space="preserve" xmlns:serif="http://www.serif.com/" style="fill-rule:evenodd;clip-rule:evenodd;stroke-linecap:round;stroke-miterlimit:10;">
    <path id="Path_309" d="M495,270.51C489.21,268.59 482.81,263.76 482.81,254.59C482.627,246.023 489.503,238.812 498.07,238.59L498.5,238.59C500.929,238.62 503.334,239.07 505.61,239.92C509.9,241.304 514.373,242.035 518.88,242.09C530.46,242.09 536.49,237.39 542.88,224.24L544.08,220.74L481.58,80.89C480.292,77.989 479.517,74.886 479.29,71.72C479.287,71.596 479.286,71.471 479.286,71.347C479.286,61.294 487.449,52.973 497.5,52.78L498.5,52.78C508.39,52.78 513.81,58.57 517.43,67.5L562.79,179.56L604.79,67.5C608.04,59.5 613.35,52.79 623.24,52.79C623.348,52.788 623.455,52.787 623.563,52.787C633.526,52.787 641.768,60.888 641.94,70.85L641.94,71C641.789,74.158 641.221,77.282 640.25,80.29L578.56,228.06C564.21,262.56 548.89,275.34 521.87,275.34C512.672,275.526 503.528,273.884 494.97,270.51" style="fill:white;fill-rule:nonzero;"/>
    <path id="Path_310" d="M678.44,72.33C678.139,61.92 686.451,53.104 696.86,52.79L697.5,52.79C708.075,52.685 716.869,61.286 717,71.86L717,82.86C729.43,65.26 746.92,51.26 774.42,51.26C813.98,51.26 852.59,82.5 852.59,138.71L852.59,139.32C852.59,195.17 814.35,226.77 774.42,226.77C746.31,226.77 728.82,212.77 717,197.1L717,256.81C717,267.398 708.288,276.11 697.7,276.11C687.112,276.11 678.4,267.398 678.4,256.81L678.44,72.33ZM813.44,139.33L813.44,138.72C813.44,106.15 791.37,84.8 765.31,84.8C739.25,84.8 716.1,106.52 716.1,138.72L716.1,139.33C716.1,171.65 739.1,193.25 765.31,193.25C791.73,193.25 813.44,172.5 813.44,139.33" style="fill:white;fill-rule:nonzero;"/>
    <path id="Path_311" d="M969.87,227.09C921.02,227.09 883.38,191.63 883.38,139.64L883.38,139C883.38,90.75 917.52,51.19 965.65,51.19C1019.33,51.19 1045.75,95.19 1045.75,134.19C1045.75,134.342 1045.76,134.494 1045.76,134.646C1045.76,144.349 1037.91,152.395 1028.21,152.64L922,152.64C926.11,180.14 945.53,195.46 970.5,195.46C985.152,195.585 999.356,190.348 1010.42,180.74C1013.16,178.382 1016.69,177.133 1020.31,177.24C1020.33,177.24 1020.34,177.24 1020.36,177.24C1028.72,177.24 1035.61,184.107 1035.64,192.47L1035.64,192.92C1035.52,197.362 1033.71,201.594 1030.58,204.75C1015.26,218.38 995.96,227.06 969.9,227.06M1008.14,127.18C1005.61,102.18 990.89,82.79 965.44,82.79C941.8,82.79 925.27,101.01 921.65,127.18L1008.14,127.18Z" style="fill:white;fill-rule:nonzero;"/>
    <path id="Path_312" d="M1093.27,176.67L1093.27,88L1086.88,88C1086.74,88.003 1086.61,88.005 1086.47,88.005C1077.37,88.005 1069.88,80.516 1069.88,71.415C1069.88,62.314 1077.37,54.825 1086.47,54.825C1086.61,54.825 1086.74,54.827 1086.88,54.83L1093.27,54.83L1093.27,26C1093.27,15.412 1101.98,6.7 1112.57,6.7C1123.16,6.7 1131.87,15.412 1131.87,26L1131.87,54.84L1162.15,54.84C1162.23,54.839 1162.32,54.838 1162.4,54.838C1171.5,54.838 1178.99,62.327 1178.99,71.428C1178.99,80.334 1171.82,87.732 1162.92,88.01L1131.87,88.01L1131.87,170.64C1131.87,185.64 1139.59,191.75 1152.62,191.75C1155.81,191.597 1159,191.263 1162.15,190.75C1171,190.656 1178.38,197.82 1178.55,206.67C1178.38,213.258 1174.36,219.168 1168.3,221.75C1159.77,224.701 1150.79,226.169 1141.76,226.09C1113.42,226.09 1093.27,213.66 1093.27,176.63" style="fill:white;fill-rule:nonzero;"/>
    <path id="Path_313" d="M1210,206.34C1205.22,203.623 1202.33,198.456 1202.52,192.96C1202.52,192.923 1202.52,192.886 1202.52,192.85C1202.52,184.34 1209.49,177.324 1218,177.27L1218.21,177.27C1221.17,177.341 1224.07,178.13 1226.66,179.57C1242.82,190.42 1259.66,195.85 1275.03,195.85C1291.68,195.85 1301.33,188.73 1301.33,177.64L1301.33,177C1301.33,163.85 1283.33,159.39 1263.57,153.36C1238.57,146.36 1210.98,136.11 1210.98,103.9L1210.98,103.3C1210.98,71.3 1237.51,51.91 1270.98,51.91C1289.48,52.164 1307.65,56.837 1323.98,65.54C1329.62,68.263 1333.24,73.992 1333.26,80.26C1333.26,80.327 1333.26,80.393 1333.26,80.46C1333.26,88.963 1326.28,95.968 1317.78,96L1317.28,96C1314.58,96.066 1311.91,95.403 1309.56,94.08C1295.8,87.08 1281.82,82.62 1270,82.62C1255,82.62 1246.47,89.62 1246.47,99.14L1246.47,99.87C1246.47,112.29 1264.57,117.36 1284.35,123.75C1308.95,131.35 1336.7,142.57 1336.7,172.85L1336.7,173.57C1336.7,208.91 1309.19,226.57 1274.09,226.57C1251.23,226.368 1228.94,219.354 1210.09,206.43" style="fill:white;fill-rule:nonzero;"/>
    <path id="Path_314" d="M229.23,151.46L229.23,128.18C229.23,102.36 243.94,86.32 265.29,86.32C277.48,86.32 286.77,91.26 292.56,100.32C302.002,96.439 312.144,94.55 322.35,94.77C330.822,94.656 339.259,95.878 347.35,98.39C353.74,90.55 363.03,86.33 374.13,86.33C395.84,86.33 408.26,100.8 408.26,127.58L408.26,157.86C418.88,147.86 432.64,138.08 446.99,136.15L446.99,115.75C446.99,74.5 424.55,51.22 387.76,51.22C362.4,51.22 344.42,63 331,81C322.08,63 304.83,51.21 280.58,51.21C254.77,51.21 240.05,65.32 229.19,80.28L229.19,72.28C229.191,72.22 229.191,72.16 229.191,72.099C229.191,61.601 220.598,52.941 210.1,52.86L209.78,52.86C199.372,52.755 190.715,61.222 190.59,71.63L190.59,135.9C204.34,134.9 217.85,142.29 229.19,151.46" style="fill:white;fill-rule:nonzero;"/>
    <path id="Path_315" d="M199.2,485.4L227.54,320C227.54,320 115,225.16 156.49,159.9C185.32,114.54 223,143 243.1,164.36C244.561,165.948 246.623,166.852 248.781,166.852C252.862,166.852 256.275,163.616 256.49,159.54C258.18,133.85 269.4,94.76 322.36,94.76C375.32,94.76 386.53,133.85 388.22,159.54C388.431,163.62 391.845,166.862 395.93,166.862C398.087,166.862 400.149,165.957 401.61,164.37C421.75,143.01 459.39,114.55 488.22,159.9C529.71,225.16 417.17,320 417.17,320L445.41,484.86L445.52,485.48" style="fill:none;fill-rule:nonzero;stroke:white;stroke-width:35.5px;"/>
</svg>
