<?xml version="1.0" encoding="utf-8"?>
<!-- Generator: Adobe Illustrator 25.2.1, SVG Export Plug-In . SVG Version: 6.00 Build 0)  -->
<svg version="1.1" id="Layer_1" xmlns="http://www.w3.org/2000/svg" xmlns:xlink="http://www.w3.org/1999/xlink" x="0px" y="0px"
	 viewBox="0 0 83 35" style="enable-background:new 0 0 83 35;" xml:space="preserve">
<style type="text/css">
	.st0{fill:#FAFAFA;}
	.st1{fill:none;stroke:#FAFAFA;stroke-width:2.39;stroke-linecap:round;stroke-miterlimit:10;}
</style>
<path id="Path_309" class="st0" d="M25.6,18.6c-0.5-0.1-0.8-0.6-0.8-1.1c0-0.6,0.4-1.1,1-1.1l0,0c0.2,0,0.3,0,0.5,0.1
	c0.3,0.1,0.6,0.1,0.9,0.1c0.8,0,1.2-0.3,1.6-1.2l0.1-0.2l-4.1-9.4c-0.1-0.2-0.1-0.4-0.1-0.6c0-0.7,0.5-1.3,1.2-1.3c0,0,0,0,0,0h0.1
	c0.6,0,1.1,0.4,1.3,1l3.1,7.6L33,4.9c0.1-0.6,0.7-1,1.2-1c0.7,0,1.2,0.5,1.3,1.2l0,0c0,0.2-0.1,0.4-0.1,0.6l-4.1,10
	c-1,2.3-2,3.2-3.8,3.2C26.8,19,26.2,18.8,25.6,18.6"/>
<path id="Path_310" class="st0" d="M37.9,5.2c0-0.7,0.5-1.3,1.2-1.3c0,0,0,0,0,0l0,0c0.7,0,1.3,0.6,1.3,1.3V6
	c0.8-1.3,2.3-2.1,3.9-2.1c2.7,0,5.3,2.1,5.3,5.9l0,0c0,3.8-2.6,5.9-5.3,5.9c-1.5,0-3-0.7-3.9-2v4c0,0.7-0.6,1.3-1.3,1.3
	c-0.7,0-1.3-0.6-1.3-1.3L37.9,5.2z M47,9.8L47,9.8c0.2-1.8-1.2-3.5-3.1-3.6c-0.1,0-0.1,0-0.2,0c-1.9,0.1-3.4,1.6-3.3,3.5
	c0,0,0,0.1,0,0.1l0,0c-0.1,1.9,1.3,3.5,3.2,3.6c0,0,0.1,0,0.1,0c1.8,0,3.3-1.6,3.3-3.4C47,9.9,47,9.8,47,9.8"/>
<path id="Path_311" class="st0" d="M57.6,15.7c-3.1,0.1-5.7-2.4-5.8-5.5c0-0.1,0-0.3,0-0.4l0,0C51.6,6.7,54,4,57.1,3.9
	c0.1,0,0.1,0,0.2,0c3,0,5.4,2.4,5.4,5.3c0,0.1,0,0.2,0,0.3c0,0.7-0.5,1.2-1.2,1.2c0,0,0,0,0,0h-7.2c0.2,1.7,1.6,2.9,3.3,2.9
	c1,0,1.9-0.3,2.7-1c0.2-0.2,0.4-0.2,0.7-0.2c0.6,0,1,0.4,1,1l0,0c0,0.3-0.1,0.6-0.3,0.8C60.5,15.2,59,15.7,57.6,15.7 M60.2,9
	C60,7.3,59,6,57.3,6s-2.7,1.2-3,3H60.2z"/>
<path id="Path_312" class="st0" d="M65.9,12.3v-6h-0.4c-0.6,0.1-1.2-0.4-1.2-1c-0.1-0.6,0.4-1.2,1-1.2c0.1,0,0.1,0,0.2,0h0.4V2.1
	c0-0.7,0.6-1.3,1.3-1.3c0.7,0,1.3,0.6,1.3,1.3v1.9h2c0.6,0.1,1.1,0.6,1,1.2c-0.1,0.5-0.5,1-1,1h-2v5.6c-0.1,0.7,0.4,1.3,1,1.4
	c0.1,0,0.2,0,0.4,0c0.2,0,0.4,0,0.6-0.1c0.6,0,1.1,0.5,1.1,1.1c0,0.4-0.3,0.8-0.7,1c-0.6,0.2-1.2,0.3-1.8,0.3
	C67.2,15.6,65.9,14.8,65.9,12.3"/>
<path id="Path_313" class="st0" d="M73.8,14.3c-0.3-0.2-0.5-0.5-0.5-0.9c0-0.6,0.4-1,1-1c0,0,0,0,0.1,0l0,0c0.2,0,0.4,0.1,0.6,0.1
	c1,0.7,2.1,1.1,3.3,1.1c1.1,0,1.8-0.5,1.8-1.2l0,0c0-0.9-1.2-1.2-2.6-1.6c-1.7-0.5-3.5-1.2-3.5-3.3l0,0c0-2.2,1.8-3.5,4-3.5
	c1.2,0,2.5,0.3,3.6,0.9c0.4,0.2,0.6,0.6,0.6,1c0,0.6-0.4,1-0.9,1.1c0,0,0,0-0.1,0l0,0c-0.2,0-0.4,0-0.5-0.1
	c-0.8-0.5-1.7-0.7-2.7-0.8c-1,0-1.6,0.5-1.6,1.1l0,0c0,0.8,1.2,1.2,2.6,1.6c1.7,0.5,3.5,1.3,3.5,3.3v0.1c0,2.4-1.8,3.6-4.2,3.6
	C76.5,15.7,75,15.2,73.8,14.3"/>
<path id="Path_314" class="st0" d="M7.7,10.6V9c0-1.7,1-2.8,2.4-2.8c0.8-0.1,1.5,0.3,1.9,0.9c0.6-0.3,1.3-0.4,2-0.4
	c0.6,0,1.1,0.1,1.6,0.2c0.4-0.5,1.1-0.8,1.8-0.8c1.5,0,2.3,1,2.3,2.8v2c0.7-0.7,1.6-1.3,2.6-1.5V8.2c0-2.8-1.5-4.3-4-4.3
	c-1.5,0-3,0.7-3.8,2c-0.6-1.3-2-2.1-3.4-2c-1.4,0-2.7,0.8-3.5,2V5.2c0-0.7-0.6-1.3-1.3-1.3l0,0c-0.7,0-1.3,0.5-1.3,1.2c0,0,0,0,0,0
	v4.3C6,9.5,7,9.9,7.7,10.6"/>
<path id="Path_315" class="st1" d="M5.7,33.1l1.9-11.1c0,0-7.6-6.4-4.8-10.8c2-3.1,4.5-1.1,5.8,0.3c0.2,0.2,0.5,0.2,0.7,0
	c0.1-0.1,0.2-0.2,0.2-0.4c0.1-1.7,0.9-4.4,4.4-4.4s4.3,2.6,4.4,4.4c0,0.3,0.3,0.5,0.5,0.5c0.1,0,0.3-0.1,0.4-0.2
	c1.4-1.4,3.9-3.4,5.8-0.3c2.8,4.4-4.8,10.8-4.8,10.8L22.2,33l0,0"/>
<path class="st0" d="M50.2,18.4V24c0.6-0.7,1.5-1,2.4-1c0.5,0,1.1,0.1,1.6,0.3c0.5,0.2,0.9,0.5,1.2,0.9c0.3,0.4,0.6,0.8,0.8,1.3
	c0.2,0.5,0.3,1.1,0.3,1.6c0,0.6-0.1,1.1-0.3,1.6c-0.2,0.5-0.5,0.9-0.8,1.3c-0.4,0.4-0.8,0.7-1.2,0.9c-0.5,0.2-1,0.3-1.6,0.3
	c-0.9,0-1.8-0.4-2.4-1.1V31h-2.8V18.4H50.2z M53.7,27.1c0-0.2,0-0.5-0.1-0.7c-0.1-0.2-0.2-0.4-0.4-0.6c-0.3-0.3-0.8-0.5-1.3-0.5
	c-0.2,0-0.5,0-0.7,0.1c-0.2,0.1-0.4,0.2-0.6,0.4c-0.2,0.2-0.3,0.4-0.4,0.6c-0.1,0.2-0.1,0.5-0.1,0.7c0,0.2,0,0.5,0.1,0.7
	c0.1,0.2,0.2,0.4,0.4,0.5c0.2,0.2,0.4,0.3,0.6,0.4c0.2,0.1,0.5,0.2,0.7,0.1c0.2,0,0.5,0,0.7-0.1c0.2-0.1,0.4-0.2,0.5-0.4
	c0.2-0.2,0.3-0.4,0.4-0.6C53.6,27.6,53.7,27.4,53.7,27.1z"/>
<path class="st0" d="M60.5,27.6c0,1.2,0.6,1.8,1.7,1.8c0.5,0,1.1-0.3,1.3-0.7h2.6c-0.5,1.8-1.9,2.7-4,2.7c-0.6,0-1.2-0.1-1.8-0.3
	c-0.5-0.2-1-0.5-1.4-0.8c-0.4-0.4-0.7-0.8-0.9-1.3c-0.2-0.5-0.3-1.1-0.3-1.7c0-0.6,0.1-1.2,0.3-1.8c0.2-0.5,0.5-1,0.9-1.3
	c0.4-0.4,0.9-0.7,1.4-0.8c0.6-0.2,1.2-0.3,1.8-0.3c0.6,0,1.2,0.1,1.8,0.3c0.5,0.2,1,0.5,1.3,0.9c0.4,0.4,0.6,0.9,0.8,1.4
	c0.2,0.6,0.3,1.2,0.3,1.8v0.3H60.5z M63.8,26c-0.1-0.4-0.3-0.7-0.6-0.9c-0.3-0.2-0.6-0.4-1-0.4c-0.4,0-0.7,0.1-1,0.3
	c-0.3,0.2-0.5,0.6-0.5,0.9H63.8z"/>
<path class="st0" d="M71,25.5V31h-2.8v-5.5h-0.9v-2.3h0.9v-2.3H71v2.3h1.6v2.3L71,25.5z"/>
<path class="st0" d="M79.6,23.2h2.8V31h-2.8v-0.9c-0.6,0.7-1.5,1.1-2.4,1.1c-0.5,0-1.1-0.1-1.6-0.3c-1-0.4-1.7-1.2-2.1-2.2
	c-0.4-1-0.4-2.2,0-3.2c0.2-0.5,0.5-0.9,0.8-1.3c0.3-0.4,0.8-0.7,1.2-0.9c0.5-0.2,1-0.3,1.6-0.3c0.9,0,1.8,0.3,2.4,1V23.2z
	 M76.1,27.1c0,0.2,0,0.5,0.1,0.7c0.1,0.2,0.2,0.4,0.4,0.6c0.2,0.2,0.3,0.3,0.6,0.4c0.2,0.1,0.5,0.1,0.7,0.1c0.2,0,0.5,0,0.7-0.1
	c0.2-0.1,0.4-0.2,0.6-0.4c0.2-0.2,0.3-0.4,0.4-0.6c0.1-0.2,0.1-0.4,0.1-0.7c0-0.2,0-0.5-0.1-0.7c-0.1-0.2-0.2-0.4-0.4-0.6
	c-0.2-0.2-0.4-0.3-0.6-0.4c-0.2-0.1-0.5-0.1-0.7-0.1c-0.2,0-0.5,0-0.7,0.1c-0.2,0.1-0.4,0.2-0.6,0.4c-0.2,0.2-0.3,0.3-0.4,0.5
	C76.1,26.6,76.1,26.9,76.1,27.1z"/>
</svg>
