<svg xmlns="http://www.w3.org/2000/svg" width="150" height="35" viewBox="0 0 150.814 35.417"><path d="M3.2-2.317V-19.872a2.527,2.527,0,0,1,.708-1.835,2.42,2.42,0,0,1,1.815-.728,2.454,2.454,0,0,1,1.825.728,2.507,2.507,0,0,1,.718,1.835v1.046a10.715,10.715,0,0,1,2.861-2.789,7.06,7.06,0,0,1,3.907-1.025,7.565,7.565,0,0,1,4.04,1.046,6.872,6.872,0,0,1,2.6,2.871,9.065,9.065,0,0,1,7.465-3.917,7.393,7.393,0,0,1,5.722,2.225,8.9,8.9,0,0,1,2.051,6.265V-2.317A2.457,2.457,0,0,1,36.207-.5a2.457,2.457,0,0,1-1.815.708A2.527,2.527,0,0,1,32.556-.5a2.42,2.42,0,0,1-.728-1.815V-12.592a6.144,6.144,0,0,0-1.169-4.03,4.08,4.08,0,0,0-3.322-1.4,4.393,4.393,0,0,0-3.445,1.446A5.9,5.9,0,0,0,22.6-12.51V-2.317a2.429,2.429,0,0,1-.728,1.8,2.456,2.456,0,0,1-1.794.718A2.527,2.527,0,0,1,18.242-.5a2.42,2.42,0,0,1-.728-1.815V-12.633a6.066,6.066,0,0,0-1.169-4,4.093,4.093,0,0,0-3.322-1.395A4.367,4.367,0,0,0,9.567-16.54a5.9,5.9,0,0,0-1.3,4.03V-2.317A2.438,2.438,0,0,1,7.547-.5,2.492,2.492,0,0,1,5.722.205,2.456,2.456,0,0,1,3.927-.513,2.429,2.429,0,0,1,3.2-2.317ZM46.778,6.85a8.612,8.612,0,0,1-3.527-.636,2.108,2.108,0,0,1-1.6-2.092A2.034,2.034,0,0,1,43.723,2.01a2.368,2.368,0,0,1,.923.164,7.873,7.873,0,0,0,1.764.308,2.919,2.919,0,0,0,1.815-.523A5.058,5.058,0,0,0,49.547.123l.185-.451-8.244-18.4a3.082,3.082,0,0,1-.287-1.23,2.389,2.389,0,0,1,.708-1.794,2.5,2.5,0,0,1,1.815-.687A2.619,2.619,0,0,1,46.2-20.487L52.151-5.763l5.558-14.725q.882-1.948,2.44-1.948a2.34,2.34,0,0,1,1.723.7,2.316,2.316,0,0,1,.7,1.7,3.057,3.057,0,0,1-.205,1.21L54.264.636a12.388,12.388,0,0,1-3.107,4.809A6.627,6.627,0,0,1,46.778,6.85Zm20.631-2.44V-19.872a2.527,2.527,0,0,1,.708-1.835,2.42,2.42,0,0,1,1.815-.728,2.454,2.454,0,0,1,1.825.728,2.507,2.507,0,0,1,.718,1.835v1.395a8.934,8.934,0,0,1,7.567-4.163,9.64,9.64,0,0,1,3.8.779,10.674,10.674,0,0,1,3.292,2.194,10.163,10.163,0,0,1,2.328,3.63,13.278,13.278,0,0,1,.872,4.9v.082a13.278,13.278,0,0,1-.872,4.9,10.346,10.346,0,0,1-2.317,3.64,10.463,10.463,0,0,1-3.281,2.2,9.69,9.69,0,0,1-3.825.779,9.121,9.121,0,0,1-7.567-3.917V4.409a2.438,2.438,0,0,1-.718,1.815,2.492,2.492,0,0,1-1.825.708,2.456,2.456,0,0,1-1.794-.718A2.429,2.429,0,0,1,67.409,4.409ZM74.249-5.947a6.1,6.1,0,0,0,4.583,1.989,5.935,5.935,0,0,0,4.512-1.948,7.224,7.224,0,0,0,1.825-5.147v-.082a7.217,7.217,0,0,0-1.835-5.127,5.916,5.916,0,0,0-4.5-1.969,6.1,6.1,0,0,0-4.583,1.989,7.1,7.1,0,0,0-1.9,5.106v.082A7.1,7.1,0,0,0,74.249-5.947ZM99.4-12.633h11.382a7.247,7.247,0,0,0-1.733-4.2,4.958,4.958,0,0,0-3.886-1.641,5.134,5.134,0,0,0-3.866,1.589A7.418,7.418,0,0,0,99.4-12.633ZM113.716-2.44A11.5,11.5,0,0,1,105.738.513,11.663,11.663,0,0,1,99.976-.923,10.6,10.6,0,0,1,95.874-5a11.857,11.857,0,0,1-1.518-6.009v-.082a12.4,12.4,0,0,1,1.374-5.8,10.562,10.562,0,0,1,3.876-4.194,10.424,10.424,0,0,1,5.6-1.548,10.921,10.921,0,0,1,3.8.646,9.17,9.17,0,0,1,2.963,1.723,11.118,11.118,0,0,1,2.082,2.492,11,11,0,0,1,1.282,2.963,12.087,12.087,0,0,1,.41,3.107,2.314,2.314,0,0,1-.7,1.753,2.371,2.371,0,0,1-1.7.667h-13.9a6.583,6.583,0,0,0,2.123,4.163A6.287,6.287,0,0,0,105.82-3.65a8.311,8.311,0,0,0,5.25-1.928,2.119,2.119,0,0,1,1.313-.472,1.939,1.939,0,0,1,1.425.584A1.989,1.989,0,0,1,114.393-4,2.142,2.142,0,0,1,113.716-2.44ZM128.358.369q-6.378,0-6.378-6.5V-17.8h-.841a2.112,2.112,0,0,1-1.548-.646A2.112,2.112,0,0,1,118.945-20a2.079,2.079,0,0,1,.646-1.538,2.129,2.129,0,0,1,1.548-.636h.841v-3.794a2.438,2.438,0,0,1,.728-1.794,2.488,2.488,0,0,1,1.835-.728,2.431,2.431,0,0,1,1.784.738,2.431,2.431,0,0,1,.738,1.784v3.794h3.979a2.188,2.188,0,0,1,1.579.636A2.063,2.063,0,0,1,133.28-20a2.08,2.08,0,0,1-.667,1.548,2.18,2.18,0,0,1-1.569.646h-3.979V-6.932a2.429,2.429,0,0,0,2.728,2.769,5.679,5.679,0,0,0,.8-.062q.431-.062.451-.062a2.1,2.1,0,0,1,1.507.625,2,2,0,0,1,.646,1.487,1.986,1.986,0,0,1-.39,1.22,2.182,2.182,0,0,1-.964.749A11.214,11.214,0,0,1,128.358.369ZM145.77.41a14.283,14.283,0,0,1-8.429-2.646A1.8,1.8,0,0,1,136.377-4a1.98,1.98,0,0,1,.595-1.456,1.98,1.98,0,0,1,1.456-.595,1.982,1.982,0,0,1,1.087.287,11.1,11.1,0,0,0,6.378,2.153,4.325,4.325,0,0,0,2.533-.646,2.038,2.038,0,0,0,.913-1.753v-.082A1.665,1.665,0,0,0,149-7.116a2.913,2.913,0,0,0-1.066-.81,12.9,12.9,0,0,0-1.395-.595q-.667-.236-1.794-.584-.226-.062-.349-.1-1.148-.308-1.989-.6a12.737,12.737,0,0,1-1.835-.841,6.722,6.722,0,0,1-1.62-1.189,5.432,5.432,0,0,1-1.056-1.641,5.545,5.545,0,0,1-.431-2.225v-.082a6.048,6.048,0,0,1,2.246-4.922,8.6,8.6,0,0,1,5.65-1.846,14.722,14.722,0,0,1,6.973,1.8,2.03,2.03,0,0,1,1.21,1.928,1.987,1.987,0,0,1-.6,1.477,2.039,2.039,0,0,1-1.487.595,2.224,2.224,0,0,1-1-.246,11.247,11.247,0,0,0-5.209-1.518,3.866,3.866,0,0,0-2.287.595,1.851,1.851,0,0,0-.831,1.579v.082a1.474,1.474,0,0,0,.3.882,2.978,2.978,0,0,0,.687.687,6.1,6.1,0,0,0,1.159.595q.769.318,1.313.5t1.548.492q1.148.369,1.969.677a12.986,12.986,0,0,1,1.815.872,7.332,7.332,0,0,1,1.62,1.2,5.383,5.383,0,0,1,1.056,1.6,5.119,5.119,0,0,1,.431,2.112v.1a6.145,6.145,0,0,1-2.307,5.158A9.389,9.389,0,0,1,145.77.41Z" transform="translate(-3.199 28.485)" fill="#fed42c"/></svg>